<svg xmlns="http://www.w3.org/2000/svg" width="900" height="520" viewBox="0 0 900 520" role="img" aria-labelledby="title desc"><title id="title">Magnetic hysteresis loop guide</title><desc id="desc">A recreated guide to hysteresis, lag, and magnetic material memory in Steinmetz's electrical engineering texts.</desc><rect width="900" height="520" fill="#f7f4ed"/><text x="42" y="58" font-family="Georgia, serif" font-size="30" fill="#1c2422">Magnetic Hysteresis</text><text x="42" y="88" font-family="Arial, sans-serif" font-size="14" fill="#526064">Recreated guide for the lag of magnetism behind magnetizing force. Original Steinmetz figures require extraction.</text><line x1="140" y1="275" x2="780" y2="275" stroke="#26312e" stroke-width="2"/><line x1="460" y1="430" x2="460" y2="120" stroke="#26312e" stroke-width="2"/><text x="782" y="282" font-family="Arial, sans-serif" font-size="15" fill="#26312e">magnetizing force</text><text x="407" y="113" font-family="Arial, sans-serif" font-size="15" fill="#26312e">magnetism</text><path d="M200 276 C255 126 400 96 565 168 C710 232 720 330 610 374 C460 434 282 398 210 305 C198 290 195 282 200 276 Z" fill="#d8e7e2" stroke="#2f6f67" stroke-width="5"/><path d="M250 278 C330 184 475 168 610 226" fill="none" stroke="#9b4d32" stroke-width="4" stroke-linecap="round"/><path d="M650 275 C575 365 420 375 280 326" fill="none" stroke="#6b5896" stroke-width="4" stroke-linecap="round"/><text x="574" y="161" font-family="Arial, sans-serif" font-size="16" fill="#2f6f67">lag / memory</text><text x="252" y="410" font-family="Arial, sans-serif" font-size="16" fill="#526064">loop area represents energy lost per cycle</text><text x="42" y="472" font-family="Arial, sans-serif" font-size="14" fill="#526064">Use with hysteresis, effective resistance, transformer loss, and Steinmetz equation research pages.</text></svg>
